<?xml version="1.0" encoding="UTF-8" standalone="no"?><!DOCTYPE svg PUBLIC "-//W3C//DTD SVG 1.1//EN" "http://www.w3.org/Graphics/SVG/1.1/DTD/svg11.dtd"><svg width="100%" height="100%" viewBox="0 0 1038 238" version="1.1" xmlns="http://www.w3.org/2000/svg" xmlns:xlink="http://www.w3.org/1999/xlink" xml:space="preserve" xmlns:serif="http://www.serif.com/" style="fill-rule:evenodd;clip-rule:evenodd;stroke-linejoin:round;stroke-miterlimit:2;"><g><g><path d="M73.293,140.497l39.354,-39.417l39.083,39.105l-6.029,6.045l-33.054,-33.029l-33.33,33.325l-6.025,-6.029Z" style="fill:#182c35;fill-rule:nonzero;"/><path d="M12.033,112.675l100.613,100.592l100.637,-100.592l-100.637,-100.637l-100.613,100.637Zm-12.033,0l112.646,-112.675l112.708,112.675l-112.708,112.688l-112.646,-112.688Z" style="fill:#182c35;fill-rule:nonzero;"/></g><path d="M274.182,177.167c6.07,-0 10.604,2.012 14.487,5.529c0.296,0.296 0.35,0.787 0.054,1.087l-0.962,1.013c-0.35,0.35 -0.646,0.3 -0.996,-0.071c-3.417,-3.046 -7.704,-4.879 -12.583,-4.879c-10.43,-0 -18.6,8.521 -18.6,18.829c-0,10.254 8.17,18.721 18.6,18.721c5.125,-0 8.991,-2.029 12.583,-5.004c0.35,-0.296 0.7,-0.296 0.942,-0.121l1.016,1.012c0.296,0.229 0.296,0.717 0,1.017c-4.058,3.921 -9.241,5.775 -14.541,5.775c-11.917,-0 -21.575,-9.413 -21.575,-21.4c-0,-11.917 9.658,-21.508 21.575,-21.508" style="fill:#203037;fill-rule:nonzero;"/><path d="M314.654,217.747c3.642,0 6.792,-2.204 7.929,-3.692l0,-6.562c-0.77,-0.35 -3.154,-1.242 -6.02,-1.242c-4.534,0 -7.559,2.325 -7.559,5.846c0,3.446 2.379,5.65 5.65,5.65m1.909,-13.65c2.745,0 5.37,0.842 6.02,1.067c0,-5.229 -0.525,-7.854 -5.25,-7.854c-3.92,-0 -6.616,1.433 -7.141,1.608c-0.488,0.175 -0.788,-0.071 -0.892,-0.471l-0.296,-0.721c-0.191,-0.541 0.05,-0.787 0.35,-0.891c0.175,-0.121 3.217,-1.8 8.171,-1.8c7.263,-0 7.558,4.358 7.558,10.445l0,13.23c0,0.42 -0.35,0.77 -0.77,0.77l-0.717,0c-0.421,0 -0.596,-0.245 -0.717,-0.65l-0.229,-2.15c-1.554,1.434 -4.479,3.396 -8.292,3.396c-4.408,0 -7.804,-3.046 -7.804,-7.929c0,-4.583 3.746,-8.05 10.008,-8.05" style="fill:#203037;fill-rule:nonzero;"/><path d="M345.995,196.415c0,-0.42 0.35,-0.77 0.771,-0.77l0.717,-0c0.35,-0 0.646,0.229 0.717,0.65l0.245,2.45c0.592,-0.842 2.975,-3.713 7.438,-3.713c1.908,0 3.221,0.546 3.692,0.721c0.541,0.192 0.837,0.592 0.662,1.083l-0.471,1.192c-0.191,0.417 -0.541,0.471 -0.962,0.296c-0.3,-0.121 -1.488,-0.717 -3.096,-0.717c-4.658,0 -6.913,3.746 -7.088,4.108l0,16.996c0,0.471 -0.245,0.767 -0.787,0.767l-1.192,-0c-0.4,-0 -0.646,-0.35 -0.646,-0.767l0,-22.296Z" style="fill:#203037;fill-rule:nonzero;"/><path d="M377.37,196.415c-0,-0.42 0.35,-0.77 0.77,-0.77l1.067,-0c0.421,-0 0.788,0.35 0.788,0.77l-0,22.296c-0,0.471 -0.246,0.767 -0.788,0.767l-1.192,-0c-0.416,-0 -0.645,-0.35 -0.645,-0.767l-0,-22.296Zm-0.717,-14.433c-0,-1.121 0.892,-2.083 2.029,-2.083c1.138,-0 2.029,0.962 2.029,2.083c0,1.083 -0.891,1.975 -2.029,1.975c-1.137,0 -2.029,-0.892 -2.029,-1.975" style="fill:#203037;fill-rule:nonzero;"/><path d="M401.08,196.415c-0,-0.42 0.35,-0.77 0.841,-0.77l0.596,-0c0.4,-0 0.646,0.229 0.7,0.595l0.242,2.555c0.771,-0.838 4.058,-3.763 8.821,-3.763c6.683,0 9.608,4.238 9.608,10.921l-0,12.758c-0,0.417 -0.371,0.767 -0.788,0.767l-1.07,-0c-0.417,-0 -0.767,-0.35 -0.767,-0.767l-0,-12.758c-0,-5.496 -2.575,-8.346 -7.104,-8.346c-4.884,0 -8.279,3.813 -8.525,4.108l-0,16.996c-0,0.471 -0.225,0.767 -0.767,0.767l-1.142,-0c-0.4,-0 -0.645,-0.35 -0.645,-0.767l-0,-22.296Z" style="fill:#203037;fill-rule:nonzero;"/><path d="M459.665,205.06c0,-5.004 -3.395,-7.629 -7.333,-7.629c-4.6,-0 -7.575,3.325 -7.575,7.629c0,4.167 2.571,7.629 7.575,7.629c4.463,0 7.333,-3.391 7.333,-7.629m-6.983,30.45c5.375,0 9.488,-3.15 9.488,-7.212c-0,-2.746 -1.684,-5.25 -6.092,-5.25l-7.508,-0c-0.592,0.07 -4.83,1.733 -4.83,5.795c0,3.271 3.167,6.667 8.942,6.667m-8.521,-24.429c-0.646,-0.842 -1.854,-3.096 -1.854,-5.967c0,-5.721 4.008,-10.079 10.446,-10.079l9.767,0c0.47,0 0.766,0.367 0.766,0.788l0,0.645c0,0.296 -0.175,0.667 -0.525,0.717l-4.287,0.3c1.121,0.592 3.696,2.675 3.696,7.629c-0,5.3 -3.817,9.904 -9.905,9.904c-3.57,0 -5.725,-1.312 -6.491,-2.154c-0.475,0.175 -3.046,1.488 -3.046,4.288c-0,2.8 2.396,3.462 4.704,3.462l8.646,0c5.129,0 8.821,2.329 8.821,7.629c-0,5.059 -4.884,9.717 -12.146,9.717c-8.117,0 -11.638,-4.779 -11.638,-8.821c0,-3.517 2.505,-5.496 3.763,-6.267c-1.188,-0.225 -4.654,-1.837 -4.654,-5.42c-0,-3.992 3.291,-6.021 3.937,-6.371" style="fill:#203037;fill-rule:nonzero;"/><path d="M507.279,196.415c-0,-0.42 0.35,-0.77 0.771,-0.77l1.066,-0c0.421,-0 0.788,0.35 0.788,0.77l-0,22.296c-0,0.471 -0.246,0.767 -0.788,0.767l-1.191,-0c-0.417,-0 -0.646,-0.35 -0.646,-0.767l-0,-22.296Zm-0.717,-14.433c0,-1.121 0.892,-2.083 2.029,-2.083c1.138,-0 2.029,0.962 2.029,2.083c0,1.083 -0.891,1.975 -2.029,1.975c-1.137,0 -2.029,-0.892 -2.029,-1.975" style="fill:#203037;fill-rule:nonzero;"/><path d="M529.624,216.557l0.596,-0.946c0.175,-0.296 0.645,-0.421 1.066,-0.071c0.596,0.475 3.046,2.33 6.371,2.33c3.413,-0 5.721,-1.909 5.721,-4.234c-0,-2.729 -2.675,-3.866 -6.667,-5.354c-4.233,-1.508 -7.333,-3.346 -7.333,-7.037c-0,-2.625 2.329,-6.213 7.804,-6.213c3.171,0 5.55,1.138 6.738,1.908c0.35,0.246 0.475,0.717 0.245,1.138l-0.366,0.667c-0.229,0.4 -0.721,0.525 -1.121,0.295c-0.542,-0.366 -2.921,-1.679 -5.496,-1.679c-3.742,0 -5.125,2.204 -5.125,3.817c0,2.396 2.154,3.517 5.671,4.775c4.462,1.662 8.396,3.15 8.396,7.508c-0,3.567 -3.692,6.613 -8.467,6.613c-4.042,-0 -6.492,-1.663 -7.804,-2.675c-0.229,-0.175 -0.421,-0.546 -0.229,-0.842" style="fill:#203037;fill-rule:nonzero;"/><path d="M590.081,196.415c0,-0.42 0.35,-0.77 0.771,-0.77l1.067,-0c0.421,-0 0.787,0.35 0.787,0.77l0,22.296c0,0.471 -0.246,0.767 -0.787,0.767l-1.188,-0c-0.421,-0 -0.65,-0.35 -0.65,-0.767l0,-22.296Zm-0.716,-14.433c-0,-1.121 0.891,-2.083 2.029,-2.083c1.137,-0 2.029,0.962 2.029,2.083c-0,1.083 -0.892,1.975 -2.029,1.975c-1.138,0 -2.029,-0.892 -2.029,-1.975" style="fill:#203037;fill-rule:nonzero;"/><path d="M613.793,196.415c0,-0.42 0.35,-0.77 0.842,-0.77l0.592,-0c0.404,-0 0.65,0.229 0.7,0.595l0.245,2.555c0.771,-0.838 4.059,-3.763 8.821,-3.763c6.684,0 9.604,4.238 9.604,10.921l0,12.758c0,0.417 -0.366,0.767 -0.787,0.767l-1.067,-0c-0.421,-0 -0.771,-0.35 -0.771,-0.767l0,-12.758c0,-5.496 -2.57,-8.346 -7.104,-8.346c-4.883,0 -8.275,3.813 -8.521,4.108l0,16.996c0,0.471 -0.225,0.767 -0.77,0.767l-1.138,-0c-0.4,-0 -0.646,-0.35 -0.646,-0.767l0,-22.296Z" style="fill:#203037;fill-rule:nonzero;"/><path d="M690.541,217.625c5.25,-0 9.362,-4.463 9.362,-10.133c0,-5.475 -4.112,-9.955 -9.362,-9.955c-5.3,0 -9.413,4.48 -9.413,9.955c0,5.67 4.113,10.133 9.413,10.133m-0,-22.592c6.683,0 11.987,5.671 11.987,12.459c0,6.983 -5.304,12.583 -11.987,12.583c-6.738,-0 -11.971,-5.6 -11.971,-12.583c0,-6.788 5.233,-12.459 11.971,-12.459" style="fill:#203037;fill-rule:nonzero;"/><path d="M721.547,196.415c-0,-0.42 0.37,-0.77 0.787,-0.77l1.067,-0c0.425,-0 0.775,0.35 0.775,0.77l-0,12.809c-0,5.55 2.571,8.35 7.104,8.35c4.933,-0 7.679,-3.871 7.854,-4.167l0,-16.992c0,-0.47 0.3,-0.77 0.788,-0.77l1.066,-0c0.421,-0 0.775,0.35 0.775,0.77l0,22.296c0,0.417 -0.354,0.767 -0.775,0.767l-0.716,-0c-0.471,-0 -0.646,-0.35 -0.717,-0.717l-0.225,-2.325c-0.671,0.838 -3.521,3.638 -8.246,3.638c-6.667,-0 -9.537,-4.113 -9.537,-10.85l-0,-12.809Z" style="fill:#203037;fill-rule:nonzero;"/><path d="M762.917,196.415c-0,-0.42 0.35,-0.77 0.771,-0.77l0.712,-0c0.35,-0 0.65,0.229 0.721,0.65l0.246,2.45c0.591,-0.842 2.975,-3.713 7.433,-3.713c1.908,0 3.225,0.546 3.696,0.721c0.542,0.192 0.837,0.592 0.662,1.083l-0.47,1.192c-0.192,0.417 -0.542,0.471 -0.963,0.296c-0.296,-0.121 -1.487,-0.717 -3.1,-0.717c-4.65,0 -6.908,3.746 -7.083,4.108l-0,16.996c-0,0.471 -0.246,0.767 -0.792,0.767l-1.187,-0c-0.4,-0 -0.646,-0.35 -0.646,-0.767l-0,-22.296Z" style="fill:#203037;fill-rule:nonzero;"/><path d="M819.26,196.415c-0,-0.42 0.35,-0.77 0.842,-0.77l0.595,-0c0.4,-0 0.646,0.229 0.7,0.595l0.242,2.555c0.771,-0.838 4.063,-3.763 8.821,-3.763c6.683,0 9.604,4.238 9.604,10.921l0,12.758c0,0.417 -0.367,0.767 -0.783,0.767l-1.067,-0c-0.425,-0 -0.775,-0.35 -0.775,-0.767l0,-12.758c0,-5.496 -2.571,-8.346 -7.104,-8.346c-4.879,0 -8.275,3.813 -8.521,4.108l0,16.996c0,0.471 -0.225,0.767 -0.767,0.767l-1.141,-0c-0.4,-0 -0.646,-0.35 -0.646,-0.767l-0,-22.296Z" style="fill:#203037;fill-rule:nonzero;"/><path d="M867.067,217.747c3.638,0 6.792,-2.204 7.925,-3.692l0,-6.562c-0.767,-0.35 -3.15,-1.242 -6.017,-1.242c-4.533,0 -7.558,2.325 -7.558,5.846c0,3.446 2.379,5.65 5.65,5.65m1.908,-13.65c2.746,0 5.371,0.842 6.017,1.067c0,-5.229 -0.542,-7.854 -5.246,-7.854c-3.921,-0 -6.616,1.433 -7.141,1.608c-0.488,0.175 -0.788,-0.071 -0.892,-0.471l-0.296,-0.721c-0.192,-0.541 0.05,-0.787 0.35,-0.891c0.175,-0.121 3.217,-1.8 8.167,-1.8c7.266,-0 7.562,4.358 7.562,10.445l0,13.23c0,0.42 -0.35,0.77 -0.771,0.77l-0.716,0c-0.421,0 -0.596,-0.245 -0.717,-0.65l-0.229,-2.15c-1.554,1.434 -4.479,3.396 -8.292,3.396c-4.412,0 -7.804,-3.046 -7.804,-7.929c0,-4.583 3.742,-8.05 10.008,-8.05" style="fill:#203037;fill-rule:nonzero;"/><path d="M899.424,197.955l-2.804,0c-0.592,0 -0.717,-0.295 -0.717,-0.77l-0,-0.946c-0,-0.417 0.3,-0.592 0.717,-0.592l2.804,0l-0,-6.512c-0,-0.471 0.35,-0.767 0.771,-0.767l1.012,-0.054c0.417,-0 0.767,0.35 0.767,0.771l-0,6.562l8.3,0c0.471,0 0.766,0.35 0.766,0.767l0,0.771c0,0.475 -0.295,0.77 -0.766,0.77l-8.3,0l-0,15.205c-0,2.804 0.3,4.358 3.1,4.358c2.1,-0 4.654,-1.138 5.425,-1.608c0.541,-0.296 0.787,-0.071 0.962,0.229l0.417,0.716c0.229,0.421 0.175,0.771 -0.192,1.013c-0.891,0.721 -3.496,2.208 -6.912,2.208c-4.929,0 -5.35,-2.925 -5.35,-6.741l-0,-15.38Z" style="fill:#203037;fill-rule:nonzero;"/><path d="M929.713,196.415c0,-0.42 0.367,-0.77 0.784,-0.77l1.066,-0c0.425,-0 0.775,0.35 0.775,0.77l0,12.809c0,5.55 2.571,8.35 7.104,8.35c4.934,-0 7.684,-3.871 7.859,-4.167l-0,-16.992c-0,-0.47 0.296,-0.77 0.783,-0.77l1.067,-0c0.425,-0 0.775,0.35 0.775,0.77l-0,22.296c-0,0.417 -0.35,0.767 -0.775,0.767l-0.717,-0c-0.471,-0 -0.646,-0.35 -0.717,-0.717l-0.225,-2.325c-0.67,0.838 -3.52,3.638 -8.245,3.638c-6.667,-0 -9.534,-4.113 -9.534,-10.85l0,-12.809Z" style="fill:#203037;fill-rule:nonzero;"/><path d="M971.079,196.415c-0,-0.42 0.35,-0.77 0.771,-0.77l0.712,-0c0.35,-0 0.654,0.229 0.721,0.65l0.246,2.45c0.591,-0.842 2.975,-3.713 7.437,-3.713c1.904,0 3.221,0.546 3.692,0.721c0.542,0.192 0.837,0.592 0.662,1.083l-0.47,1.192c-0.192,0.417 -0.542,0.471 -0.963,0.296c-0.296,-0.121 -1.487,-0.717 -3.096,-0.717c-4.654,0 -6.912,3.746 -7.087,4.108l-0,16.996c-0,0.471 -0.246,0.767 -0.792,0.767l-1.187,-0c-0.4,-0 -0.646,-0.35 -0.646,-0.767l-0,-22.296Z" style="fill:#203037;fill-rule:nonzero;"/><path d="M1020.46,206.128c0,-4.654 -2.8,-8.696 -8.175,-8.696c-5.25,0 -8.762,3.813 -9.062,8.696l17.237,-0Zm-8.175,-11.096c6.267,0 10.8,4.604 10.8,10.921c0,0.946 0,2.329 -0.895,2.329l-19.017,0c0.242,5.125 3.933,9.413 9.287,9.413c3.171,-0 5.621,-1.259 7.038,-2.205c0.537,-0.366 0.787,-0.42 1.083,0l0.596,0.821c0.175,0.246 0.104,0.613 -0.246,0.963c-1.191,1.187 -4.95,2.8 -8.646,2.8c-7.258,-0 -11.737,-5.6 -11.737,-12.579c-0,-6.792 4.479,-12.463 11.737,-12.463" style="fill:#203037;fill-rule:nonzero;"/><path d="M307.499,158.968l-10.904,0l-21.696,-62.504l1.416,-2.079l18.496,0l0,-42.979l-26.633,-0l-0,107.562l-10.358,0l-0,-116.733l39.075,0c2.45,0 4.429,0.771 5.966,2.313c1.538,1.537 2.325,3.533 2.325,5.966l0,44.304c0,5.617 -3.775,8.434 -11.337,8.434c-0.754,-0 -1.854,-0.034 -3.288,-0.121c-1.437,-0.067 -2.487,-0.104 -3.133,-0.104c6.717,18.6 13.404,37.254 20.071,55.941" style="fill:#203037;fill-rule:nonzero;"/><path d="M352.784,94.679l-21.35,-0l0,21.854l21.35,-0l0,-21.854Zm9.608,55.858c0,5.617 -2.783,8.429 -8.35,8.429l-23.866,0c-5.567,0 -8.346,-2.812 -8.346,-8.429l0,-55.717c0,-5.616 2.779,-8.416 8.346,-8.416l23.866,-0c5.567,-0 8.351,2.8 8.351,8.416l-0,26.109l-3.342,3.496l-27.613,-0l0,26.266l21.346,0l0,-13.279l9.608,0l0,13.125Z" style="fill:#203037;fill-rule:nonzero;"/><path d="M410.196,149.939l0,-25.654l-22.15,0l0,26.108l22.15,-0.454Zm9.625,9.029l-9.762,0l-0,-2.012c-3.942,0.542 -7.859,1.067 -11.796,1.558c-4.867,0.613 -8.767,0.909 -11.704,0.909c-5.429,-0 -8.138,-2.692 -8.138,-8.067l0,-26.475c0,-5.563 2.817,-8.346 8.434,-8.346l23.341,0l0,-21.854l-21.329,-0l0,12.371l-9.625,-0l0,-12.234c0,-5.616 2.783,-8.416 8.367,-8.416l23.866,-0c5.563,-0 8.346,2.8 8.346,8.416l0,64.15Z" style="fill:#203037;fill-rule:nonzero;"/><rect x="436.693" y="42.233" width="9.762" height="116.733" style="fill:#203037;"/><path d="M532.757,158.968l-38.342,0l0,-116.733l37.888,0l-0,9.171l-27.525,-0l-0,43.571l25.075,-0l-0,9.325l-25.075,-0l-0,45.5l27.979,-0l0,9.166Z" style="fill:#203037;fill-rule:nonzero;"/><path d="M586.828,150.535c-0,5.617 -2.8,8.433 -8.417,8.433l-22.766,0c-5.617,0 -8.417,-2.816 -8.417,-8.433l-0,-16.483l9.762,-0l0,16.341l20.071,0l0,-14.47l-25.966,-21.259c-2.484,-1.996 -3.725,-4.571 -3.725,-7.754l-0,-12.092c-0,-5.616 2.816,-8.416 8.433,-8.416l22.45,-0c5.617,-0 8.433,2.8 8.433,8.416l0,14.475l-9.625,0l0,-14.316l-20.071,-0l0,12.671l26.18,21.258c2.45,1.942 3.658,4.587 3.658,7.912l-0,13.717Z" style="fill:#203037;fill-rule:nonzero;"/><path d="M628.684,158.968l-14.104,0c-5.563,0 -8.363,-2.816 -8.363,-8.433l0,-55.417l-8.717,0l0,-8.716l8.717,-0l0,-22.609l9.779,0l0,22.609l12.688,-0l-0,8.716l-12.688,0l0,55.121l12.688,0l-0,8.729Z" style="fill:#203037;fill-rule:nonzero;"/><path d="M672.745,149.939l-0,-25.654l-22.154,0l-0,26.108l22.154,-0.454Zm9.625,9.029l-9.767,0l0,-2.012c-3.937,0.542 -7.854,1.067 -11.791,1.558c-4.867,0.613 -8.767,0.909 -11.709,0.909c-5.425,-0 -8.133,-2.692 -8.133,-8.067l0,-26.475c0,-5.563 2.817,-8.346 8.433,-8.346l23.342,0l0,-21.854l-21.329,-0l-0,12.371l-9.625,-0l-0,-12.234c-0,-5.616 2.783,-8.416 8.362,-8.416l23.871,-0c5.563,-0 8.346,2.8 8.346,8.416l0,64.15Z" style="fill:#203037;fill-rule:nonzero;"/><path d="M724.749,158.968l-14.104,0c-5.562,0 -8.362,-2.816 -8.362,-8.433l-0,-55.417l-8.713,0l0,-8.716l8.712,-0l0,-22.609l9.784,0l-0,22.609l12.683,-0l0,8.716l-12.683,0l-0,55.121l12.683,0l0,8.729Z" style="fill:#203037;fill-rule:nonzero;"/><path d="M768.392,94.679l-21.35,-0l0,21.854l21.35,-0l0,-21.854Zm9.609,55.858c-0,5.617 -2.784,8.429 -8.35,8.429l-23.867,0c-5.567,0 -8.346,-2.812 -8.346,-8.429l0,-55.717c0,-5.616 2.779,-8.416 8.346,-8.416l23.867,-0c5.566,-0 8.35,2.8 8.35,8.416l-0,26.109l-3.346,3.496l-27.613,-0l0,26.266l21.35,0l0,-13.279l9.609,0l-0,13.125Z" style="fill:#203037;fill-rule:nonzero;"/><path d="M872.263,150.692c-0,2.433 -0.783,4.425 -2.379,5.966c-1.592,1.542 -3.609,2.309 -6.038,2.309l-30.058,-0c-2.433,-0 -4.429,-0.767 -5.971,-2.309c-1.537,-1.541 -2.312,-3.533 -2.312,-5.966l-0,-100.18c-0,-2.429 0.775,-4.425 2.312,-5.966c1.542,-1.542 3.538,-2.309 5.971,-2.309l30.058,0c2.429,0 4.446,0.767 6.038,2.309c1.596,1.541 2.379,3.537 2.379,5.966l-0,27.159l-10.429,-0l-0,-26.267l-25.967,0l0,98.396l25.967,-0l-0,-28.713l10.429,0l-0,29.605Z" style="fill:#203037;fill-rule:nonzero;"/><path d="M920.611,149.939l-0,-25.654l-22.15,0l-0,26.108l22.15,-0.454Zm9.629,9.029l-9.767,0l0,-2.012c-3.941,0.542 -7.858,1.067 -11.795,1.558c-4.863,0.613 -8.767,0.909 -11.709,0.909c-5.425,-0 -8.133,-2.692 -8.133,-8.067l-0,-26.475c-0,-5.563 2.817,-8.346 8.433,-8.346l23.342,0l-0,-21.854l-21.329,-0l-0,12.371l-9.625,-0l-0,-12.234c-0,-5.616 2.783,-8.416 8.362,-8.416l23.871,-0c5.567,-0 8.35,2.8 8.35,8.416l0,64.15Z" style="fill:#203037;fill-rule:nonzero;"/><path d="M984.445,110.27l-9.762,0l-0,-14.995l-18.271,0.595l0,63.1l-9.917,0l0,-72.566l9.917,-0l0,2.012c3.275,-0.508 6.583,-1.033 9.904,-1.575c3.992,-0.596 7.296,-0.891 9.921,-0.891c5.483,-0 8.208,2.708 8.208,8.133l0,16.187Z" style="fill:#203037;fill-rule:nonzero;"/><path d="M1028.04,94.679l-21.35,-0l0,21.854l21.35,-0l0,-21.854Zm9.604,55.858c0,5.617 -2.783,8.429 -8.35,8.429l-23.862,0c-5.567,0 -8.35,-2.812 -8.35,-8.429l-0,-55.717c-0,-5.616 2.783,-8.416 8.35,-8.416l23.862,-0c5.567,-0 8.35,2.8 8.35,8.416l0,26.109l-3.341,3.496l-27.613,-0l0,26.266l21.35,0l0,-13.279l9.604,0l0,13.125Z" style="fill:#203037;fill-rule:nonzero;"/></g></svg>